<svg height="511pt" viewBox="-61 0 511 511.998" width="511pt" xmlns="http://www.w3.org/2000/svg"><path d="m159.445312 234.46875v17.496094c0 8.441406 6.84375 15.28125 15.285157 15.28125h159.136719v-105.230469c0-13.070313-10.597657-23.667969-23.671876-23.667969h-39.320312l-25.539062 29.347656c-5.480469 6.292969-15.261719 6.292969-20.742188 0l-25.539062-29.347656h-64.558594v15.132813c0 10.457031-8.476563 18.933593-18.933594 18.933593-10.460938 0-18.9375-8.476562-18.9375-18.933593v-15.132813h-28.867188c-13.070312 0-23.667968 10.597656-23.667968 23.667969v43.675781h86.574218c15.898438-.003906 28.78125 12.882813 28.78125 28.777344zm0 0" fill="#ff8db2"/><path d="m115.5625 172.414062c10.457031 0 18.933594-8.476562 18.933594-18.933593v-65.472657c0-3.832031 3.109375-6.941406 6.941406-6.941406h13.367188c11.277343 0 17.320312-13.265625 9.917968-21.773437l-38.792968-44.570313c-5.476563-6.296875-15.257813-6.296875-20.738282 0l-38.789062 44.570313c-7.402344 8.507812-1.363282 21.773437 9.914062 21.773437h13.371094c3.832031 0 6.9375 3.109375 6.9375 6.941406v65.472657c.003906 10.457031 8.480469 18.933593 18.9375 18.933593zm0 0" fill="#78ffa9"/><path d="m245.335938 167.691406 25.539062-29.34375 13.25-15.226562c7.402344-8.507813 1.359375-21.773438-9.917969-21.773438h-13.367187c-3.832032 0-6.941406-3.109375-6.941406-6.941406v-65.472656c0-10.457032-8.476563-18.933594-18.933594-18.933594-10.457032 0-18.933594 8.476562-18.933594 18.933594v65.472656c0 3.832031-3.109375 6.941406-6.941406 6.941406h-13.367188c-11.277344 0-17.320312 13.265625-9.917968 21.773438 5.449218 6.257812 34.644531 39.808594 38.792968 44.570312 5.476563 6.296875 15.257813 6.296875 20.738282 0zm0 0" fill="#9bdcff"/><path d="m278.191406 341.96875h-13.96875v29.769531h13.96875c8.46875 0 12.699219-4.703125 12.699219-14.109375v-1.550781c0-9.40625-4.230469-14.109375-12.699219-14.109375zm0 0" fill="#ffe671"/><path d="m350.472656 267.246094h-175.742187c-8.441407 0-15.285157-6.84375-15.285157-15.28125v-17.496094c0-15.894531-12.882812-28.78125-28.78125-28.78125-10.015624 0-77.324218 0-91.382812 0-15.894531 0-28.78125 12.886719-28.78125 28.78125v238.75c0 15.894531 12.882812 28.78125 28.78125 28.78125h311.191406c15.894532 0 28.78125-12.886719 28.78125-28.78125v-177.191406c0-15.894532-12.886718-28.78125-28.78125-28.78125zm-215.136718 71.898437c-1.179688 1.882813-2.800782 2.824219-4.867188 2.824219h-36.542969v23.84375h21.304688c2.066406 0 3.691406.847656 4.867187 2.539062 1.175782 1.695313 1.761719 3.71875 1.761719 6.070313 0 2.164063-.5625 4.089844-1.691406 5.78125-1.128907 1.695313-2.773438 2.542969-4.9375 2.542969h-21.304688v36.402344c0 2.164062-1.082031 3.832031-3.246093 5.007812-2.164063 1.179688-4.75 1.765625-7.757813 1.765625-3.015625 0-5.601563-.585937-7.761719-1.765625-2.167968-1.175781-3.246094-2.84375-3.246094-5.007812v-89.597657c0-2.160156.9375-3.832031 2.820313-5.007812s4.140625-1.765625 6.773437-1.765625h48.960938c2.160156 0 3.808594.941406 4.9375 2.824218 1.128906 1.882813 1.691406 4.089844 1.691406 6.628907.003906 2.730469-.585937 5.035156-1.761718 6.914062zm85.785156.015625c-1.175782 1.875-2.800782 2.808594-4.867188 2.808594h-19.472656v77.132812c0 2.179688-1.082031 3.859376-3.246094 5.042969-2.164062 1.183594-4.75 1.777344-7.757812 1.777344-3.011719 0-5.597656-.59375-7.761719-1.777344-2.164063-1.183593-3.246094-2.863281-3.246094-5.042969v-77.132812h-19.46875c-2.070312 0-3.695312-.933594-4.867187-2.808594-1.179688-1.875-1.765625-4.179687-1.765625-6.921875 0-2.558593.5625-4.773437 1.691406-6.648437 1.128906-1.871094 2.773437-2.808594 4.941406-2.808594h60.953125c2.160156 0 3.808594.9375 4.9375 2.808594 1.128906 1.875 1.691406 4.089844 1.691406 6.648437.003907 2.742188-.585937 5.046875-1.761718 6.921875zm91.78125 16.777344c0 11.195312-3.175782 19.449219-9.523438 24.761719-6.351562 5.316406-14.746094 7.972656-25.1875 7.972656h-13.96875v30.476563c0 2.164062-1.082031 3.832031-3.242187 5.007812-2.167969 1.179688-4.753907 1.765625-7.761719 1.765625-3.011719 0-5.597656-.585937-7.761719-1.765625-2.164062-1.175781-3.242187-2.84375-3.242187-5.007812v-89.738282c0-1.785156.75-3.335937 2.257812-4.65625 1.5-1.316406 3.476563-1.972656 5.925782-1.972656h29.207031c10.0625 0 18.128906 2.609375 24.195312 7.828125 6.066407 5.222656 9.101563 13.429687 9.101563 24.621094zm0 0" fill="#ffe671"/><path d="m350.472656 257.246094h-6.605468v-95.230469c0-18.566406-15.105469-33.667969-33.671876-33.667969h-17.441406c5.097656-6.78125 6.085938-15.613281 2.519532-23.445312-3.808594-8.359375-11.878907-13.554688-21.0625-13.554688h-10.3125v-62.414062c0-15.953125-12.976563-28.933594-28.933594-28.933594-15.953125 0-28.9375 12.980469-28.9375 28.933594v62.414062h-10.304688c-9.1875 0-17.257812 5.191406-21.066406 13.550782-3.566406 7.835937-2.578125 16.664062 2.523438 23.449218h-32.683594v-37.28125h10.308594c9.1875 0 17.257812-5.191406 21.0625-13.550781 3.808593-8.359375 2.425781-17.859375-3.605469-24.785156l-38.789063-44.574219c-4.507812-5.183594-11.039062-8.15625-17.910156-8.15625s-13.402344 2.972656-17.914062 8.15625l-38.789063 44.570312c-6.03125 6.929688-7.414063 16.425782-3.605469 24.789063 3.808594 8.359375 11.878906 13.550781 21.0625 13.550781h10.308594v37.277344h-18.867188c-18.566406 0-33.667968 15.105469-33.667968 33.671875v34.03125c-18.9375 2.542969-33.589844 18.796875-33.589844 38.421875v238.75c0 21.382812 17.394531 38.777344 38.78125 38.777344h311.191406c21.382813 0 38.78125-17.394532 38.78125-38.777344v-177.191406c0-21.382813-17.398437-38.78125-38.78125-38.78125zm-157.613281-144.058594c.382813-.839844 1.1875-1.839844 2.863281-1.839844h13.367188c9.339844 0 16.9375-7.601562 16.9375-16.941406v-65.472656c0-4.925782 4.011718-8.933594 8.9375-8.933594 4.925781 0 8.933594 4.007812 8.933594 8.933594v65.472656c0 9.339844 7.601562 16.941406 16.941406 16.941406h13.367187c1.675781 0 2.480469 1 2.863281 1.839844.382813.839844.609376 2.109375-.488281 3.371094l-13.25 15.222656-25.542969 29.347656c-.972656 1.117188-2.1875 1.285156-2.824218 1.285156-.636719 0-1.851563-.167968-2.824219-1.285156l-38.792969-44.570312c-1.097656-1.261719-.871094-2.53125-.488281-3.371094zm-116.542969-42.121094c-1.671875 0-2.476562-1-2.859375-1.839844-.382812-.839843-.609375-2.105468.488281-3.367187l38.789063-44.574219c.976563-1.117187 2.191406-1.285156 2.828125-1.285156s1.851562.167969 2.824219 1.285156l38.792969 44.574219c1.097656 1.261719.871093 2.527344.488281 3.367187-.382813.839844-1.191407 1.839844-2.863281 1.839844h-13.367188c-9.339844 0-16.941406 7.601563-16.941406 16.941406v65.472657c0 4.925781-4.007813 8.933593-8.933594 8.933593-4.929688 0-8.9375-4.007812-8.9375-8.933593v-65.472657c0-9.339843-7.597656-16.941406-16.9375-16.941406zm292.9375 402.152344c0 10.355469-8.425781 18.78125-18.78125 18.78125h-311.191406c-10.355469 0-18.78125-8.425781-18.78125-18.78125v-238.75c0-10.355469 8.425781-18.78125 18.78125-18.78125h91.382812c10.359376 0 18.78125 8.425781 18.78125 18.78125v17.496094c0 13.9375 11.34375 25.28125 25.285157 25.28125h52.480469c5.519531 0 10-4.476563 10-10 0-5.523438-4.480469-10-10-10h-52.480469c-2.914063 0-5.285157-2.367188-5.285157-5.28125v-17.496094c0-21.382812-17.394531-38.78125-38.78125-38.78125h-76.574218v-33.671875c0-7.539063 6.132812-13.667969 13.667968-13.667969h18.867188v5.132813c0 1.496093.113281 2.964843.335938 4.398437.953124 6.21875 3.890624 11.792969 8.148437 16.050782 5.242187 5.242187 12.476563 8.484374 20.453125 8.484374 14.457031 0 26.472656-10.660156 28.601562-24.535156.21875-1.433594.332032-2.902344.332032-4.398437v-5.132813h50.007812l22.550782 25.910156c4.511718 5.183594 11.039062 8.15625 17.910156 8.15625s13.398437-2.972656 17.914062-8.15625l22.550782-25.910156h34.765624c7.539063 0 13.671876 6.128906 13.671876 13.667969v95.230469h-16.65625c-5.523438 0-10 4.476562-10 10 0 5.523437 4.476562 10 10 10h43.261718c10.355469 0 18.78125 8.425781 18.78125 18.78125zm0 0"/><path d="m130.46875 322.777344h-48.960938c-2.636718 0-4.894531.589844-6.773437 1.765625-1.882813 1.175781-2.820313 2.847656-2.820313 5.007812v89.597657c0 2.164062 1.078126 3.832031 3.246094 5.007812 2.160156 1.179688 4.746094 1.765625 7.761719 1.765625 3.007813 0 5.59375-.585937 7.757813-1.765625 2.164062-1.175781 3.246093-2.84375 3.246093-5.007812v-36.402344h21.304688c2.164062 0 3.808593-.847656 4.9375-2.542969 1.128906-1.691406 1.691406-3.617187 1.691406-5.78125 0-2.351563-.585937-4.375-1.761719-6.070313-1.175781-1.691406-2.800781-2.539062-4.867187-2.539062h-21.304688v-23.84375h36.542969c2.066406 0 3.6875-.941406 4.867188-2.824219 1.175781-1.878906 1.765624-4.183593 1.765624-6.914062 0-2.539063-.566406-4.746094-1.695312-6.628907-1.128906-1.878906-2.777344-2.824218-4.9375-2.824218zm0 0"/><path d="m216.253906 322.777344h-60.953125c-2.164062 0-3.8125.9375-4.9375 2.8125-1.128906 1.875-1.695312 4.089844-1.695312 6.644531 0 2.746094.585937 5.050781 1.765625 6.925781 1.175781 1.871094 2.796875 2.808594 4.867187 2.808594h19.472657v77.132812c0 2.175782 1.078124 3.859376 3.242187 5.042969 2.164063 1.183594 4.75 1.777344 7.761719 1.777344 3.007812 0 5.59375-.59375 7.761718-1.777344 2.160157-1.183593 3.242188-2.867187 3.242188-5.042969v-77.132812h19.472656c2.066406 0 3.691406-.9375 4.867188-2.808594 1.175781-1.875 1.765625-4.179687 1.765625-6.925781 0-2.554687-.566407-4.769531-1.695313-6.644531s-2.777344-2.8125-4.9375-2.8125zm0 0"/><path d="m303.800781 330.609375c-6.066406-5.21875-14.132812-7.832031-24.195312-7.832031h-29.207031c-2.449219 0-4.421876.660156-5.925782 1.976562-1.507812 1.316406-2.257812 2.871094-2.257812 4.65625v89.738282c0 2.164062 1.078125 3.832031 3.246094 5.007812 2.160156 1.175781 4.746093 1.765625 7.757812 1.765625s5.597656-.585937 7.761719-1.765625c2.164062-1.175781 3.246093-2.84375 3.246093-5.007812v-30.476563h13.96875c10.4375 0 18.835938-2.660156 25.183594-7.972656 6.351563-5.3125 9.523438-13.566407 9.523438-24.761719v-.707031c0-11.191407-3.035156-19.398438-9.101563-24.621094zm-12.910156 27.019531c0 9.40625-4.230469 14.109375-12.695313 14.109375h-13.96875v-29.769531h13.96875c8.464844 0 12.695313 4.703125 12.695313 14.109375zm0 0"/><path d="m267.234375 277.246094c5.523437 0 10-4.476563 10-10 0-5.523438-4.476563-10-10-10h-.023437c-5.523438 0-9.988282 4.476562-9.988282 10 0 5.523437 4.488282 10 10.011719 10zm0 0"/></svg>