<?xml version="1.0" encoding="iso-8859-1"?>
<!-- Generator: Adobe Illustrator 18.1.1, SVG Export Plug-In . SVG Version: 6.00 Build 0)  -->
<svg version="1.1" id="Capa_1" xmlns="http://www.w3.org/2000/svg" xmlns:xlink="http://www.w3.org/1999/xlink" x="0px" y="0px"
	 viewBox="0 0 612 612" style="enable-background:new 0 0 612 612;" xml:space="preserve">
<g>
	<g>
		<path d="M74.259,362.619v100.234c0,17.374,103.613,31.458,231.427,31.458c127.813,0,231.426-14.084,231.426-31.458V362.764
			c18.127-3.718,31.761-19.76,31.761-38.987V218.545c0-21.302-16.736-38.695-37.777-39.749C507.269,76.34,415.394,0,305.685,0
			h-0.001C195.96,0,104.073,76.363,80.263,178.844c-20.737,1.372-37.135,18.617-37.135,39.701v105.231
			C43.127,342.779,56.449,358.66,74.259,362.619z M124.55,241.817c0-46.037,37.32-83.358,83.357-83.358h196.186
			c46.037,0,83.357,37.32,83.357,83.358v50.654c-16.326,18.067-32.651,36.134-48.977,54.2h-77.437
			c-4.98-7.341-13.391-12.165-22.931-12.165c-15.294,0-27.691,12.398-27.691,27.691s12.398,27.691,27.691,27.691
			c8.284,0,15.711-3.642,20.786-9.405h85.733c8.709,0,11.068-2.954,15.327-7.213l27.477-30.407
			c-0.949,45.213-37.894,81.573-83.335,81.573H207.907c-46.037,0-83.357-37.32-83.357-83.358L124.55,241.817L124.55,241.817z"/>
		<path d="M552.824,493.765c-31.59,14.492-130.282,25.063-247.138,25.063c-116.857,0-215.549-10.572-247.138-25.063
			c-4.952-2.271-10.587,1.409-10.587,6.857v76.345c0,19.348,115.387,35.033,257.725,35.033c142.337,0,257.724-15.685,257.724-35.033
			v-76.346C563.41,495.174,557.775,491.494,552.824,493.765z"/>
	</g>
</g>
<g>
</g>
<g>
</g>
<g>
</g>
<g>
</g>
<g>
</g>
<g>
</g>
<g>
</g>
<g>
</g>
<g>
</g>
<g>
</g>
<g>
</g>
<g>
</g>
<g>
</g>
<g>
</g>
<g>
</g>
</svg>
